<svg xmlns="http://www.w3.org/2000/svg" xmlns:xlink="http://www.w3.org/1999/xlink" xmlns:inkscape="http://www.inkscape.org/namespaces/inkscape" version="1.1" width="375" height="375" viewBox="0 0 375 375">
<defs>
<clipPath id="clip_0">
<path transform="matrix(.24,0,0,.24,0,0)" d="M0 0H1562.5V1562.5H0Z" clip-rule="evenodd"/>
</clipPath>
<clipPath id="clip_1">
<path transform="matrix(.24,0,0,.24,0,0)" d="M0 0H1562.5V1562.5H0Z" clip-rule="evenodd"/>
</clipPath>
<clipPath id="clip_2">
<path transform="matrix(.24,0,0,.24,0,0)" d="M0 0H1562.5V1562.5H0Z" clip-rule="evenodd"/>
</clipPath>
<clipPath id="clip_3">
<path transform="matrix(.24,0,0,.24,0,0)" d="M794.97897 765.72128H1419.979V909.47128H794.97897Z" clip-rule="evenodd"/>
</clipPath>
<clipPath id="clip_4">
<path transform="matrix(.24,0,0,.24,0,0)" d="M0 0H1562.5V1562.5H0Z" clip-rule="evenodd"/>
</clipPath>
</defs>
<g clip-path="url(#clip_0)">
<path transform="matrix(.75,0,0,.75,0,0)" d="M0 0H500V500H0Z" fill="#ffffff"/>
</g>
<g clip-path="url(#clip_1)">
<path transform="matrix(.75,0,0,.75,0,0)" d="M0 0H500V500H0Z" fill="#ffffff"/>
</g>
<g clip-path="url(#clip_2)">
<text fill="#292929" xml:space="preserve" transform="matrix(.7004945 0 0 .7004945 34.893026 153.09949)" font-size="49.1" font-family="TANPARFAIT"><tspan y="49" x="21.484375 72.73874 109.41226 140.68549 167.19661 208.8777 227.0429 265.33653 303.63014 357.83015">Her blooms</tspan></text>
</g>
<g clip-path="url(#clip_3)">
<path transform="matrix(.8250824,0,0,.82062259,190.79494,183.95415)" d="M91.95 33.38C87.479999 33.3 83 32.84 78.64 31.86 74.02 30.7 69.63 28.78 65.22 27.01 61.77 25.48 58.530004 23.57 54.99 22.26 52.13 21.09 49.300004 19.84 46.4 18.77 42.77 17.52 39 16.39 35.260004 15.58 29.940003 14.36 24.490002 13.65 19.030003 13.86 15.920003 14.07 12.970003 14.67 9.990003 15.41 7.49 16 5.01 16.7 2.74 17.87 1.94 18.27 1.1600001 18.710001 .3900001 19.17 .2700001 19.24 .10000008 19.19 .03000009 19.07-.039999919 18.94 .010000089 18.789999 .13000009 18.71 1.8400002 17.669999 3.5800002 16.65 5.4500005 15.929999 7.26 15.249999 9.150001 14.78 11.02 14.289999 13.5 13.669999 16.02 13.199999 18.560002 12.989999 21.190003 12.779999 23.840003 12.979999 26.470002 13.169999 33.54 13.859999 40.47 15.669999 47.160005 18.039999 51.120004 19.619999 55.070005 21.259999 58.980005 22.97 61.510004 24.16 63.920003 25.57 66.520008 26.599999 70.12 28.05 73.71001 29.559998 77.44 30.64 81.01 31.68 84.76 32.059999 88.450008 32.36 94.16 32.760004 99.97 32.33 105.520008 30.91 109.340007 30.03 112.96001 28.39 116.43001 26.64 118.61001 25.599999 120.80001 24.539999 122.770008 23.24 124.590007 21.99 126.39001 20.72 128.21 19.45 130.1 18.01 131.79001 16.330002 133.67002 14.880001 134.27002 14.360001 134.84001 13.780001 135.36002 13.170001 135.56002 12.9400019 135.74002 12.680001 136.02002 12.550001 136.10002 12.510001 136.21002 12.560001 136.24002 12.640001 136.28002 12.740002 136.21002 12.860002 136.11002 12.870001 135.64002 13.35 135.34001 13.9800009 134.89002 14.490001 134.08002 15.490001 133.04001 16.27 132.11002 17.16 130.74002 18.47 129.36002 19.81 127.780017 20.88 126.08002 22.05 124.460018 23.34 122.710018 24.439999 120.84001 25.63 118.74001 26.619999 116.780017 27.559998 109.18 31.64 100.55 33.48 91.95 33.38Z"/>
<path transform="matrix(.8250824,0,0,.82062259,190.79494,183.95415)" d="M162.31 27.09C160.20999 25.54 157.9 24.29 155.48 23.33 153.18 22.53 150.76 22.06 148.39 21.55 143.22 20.38 137.85 20.49 132.64 21.32 130.01 21.699999 127.39 22.09 124.83 22.82 124.46 23.13 124.21 22.4 124.700008 22.43 126.850009 21.65 129.09001 21.16 131.34001 20.800002 134.48001 20.220002 137.66002 19.85 140.85 19.960001 145.31002 20.03 149.68001 21.050002 153.97 22.150002 155.94 22.670002 157.78 23.570002 159.56 24.54 160.70999 25.11 161.67 25.85 162.67 26.62 162.97 26.87 162.63 27.33 162.31 27.09Z"/>
<path transform="matrix(.8250824,0,0,.82062259,190.79494,183.95415)" d="M64.02 41.15C64.32 41.2 64.60999 41.25 64.909999 41.31 64.979999 41.32 65.049999 41.33 65.119998 41.34 63.509996 40.51 62.149995 39.2 60.859994 37.96 59.289995 36.55 57.77999 35.12 56.119997 33.84 54.289995 32.4 52.029996 31.64 49.869997 30.89 50.369997 32.05 50.799997 33.22 51.509996 34.27 51.939996 35.02 52.319997 35.81 52.989995 36.38 54.369997 37.690004 56.089994 38.530004 57.779996 39.370004 59.7 40.39 61.89 40.76 64.02 41.15ZM65.8 41.75C62.620004 41.42 59.320005 41.14 56.500005 39.52 54.920007 38.71 53.410005 37.69 52.230005 36.35 51.470006 35.359998 50.780004 34.32 50.140005 33.26 49.720006 32.329999 49.430006 31.359999 49.090005 30.419999 47.760004 27.71 45.880006 25.3 43.960004 22.989998 41.940004 20.799998 39.800004 18.669999 37.22 17.149998 35.91 16.349999 34.56 15.619998 33.18 14.979998 32.82 14.809998 32.45 14.669997 32.07 14.539998 31.97 14.519998 31.9 14.409998 31.96 14.3099989 32.01 14.229999 32.129999 14.209998 32.2 14.279999 36.4 15.619999 40.35 18.009999 43.260004 21.329998 44.530004 22.589999 45.61 24.009999 46.660005 25.46 47.750005 27.009999 48.870004 28.579998 49.620004 30.329998 51.29 30.789998 53.030004 31.049998 54.590005 31.879998 55.750005 32.409997 56.690004 33.28 57.670007 34.079999 59.220006 35.37 60.680006 36.73 62.120008 38.149999 62.970006 39.019998 63.830007 39.8 64.79001 40.53 65.20001 40.809999 65.65001 41.05 65.990009 41.41 66.05 41.47 66.11001 41.55 66.100009 41.64 66.08 41.76 65.92 41.78 65.8 41.75Z"/>
<path transform="matrix(.8250824,0,0,.82062259,190.79494,183.95415)" d="M65.11 41.47C61.49 40.43 58.29 38.31 55.39 35.97 53.5 34.43 51.63 32.870004 49.879999 31.170002 49.809999 31.100003 49.749998 31.030003 49.719999 30.940003 49.659997 30.800004 49.819997 30.650002 49.949998 30.730004 50.059999 30.790003 50.139997 30.890004 50.229997 30.970004 51.879999 32.450006 53.599996 33.870004 55.339998 35.22 56.789999 36.49 58.329999 37.65 59.979997 38.64 61.549997 39.66 63.309999 40.32 65.02 41.09 65.149997 41.16 65.369998 41.14 65.42 41.31 65.47 41.49 65.23 41.62 65.11 41.47Z"/>
<path transform="matrix(.8250824,0,0,.82062259,190.79494,183.95415)" d="M163.99 31.83C164.71 31.72 164.97 30.99 165.44 30.55 165.6 30.42 165.8 30.349999 166 30.38 166.82 30.619999 167.37 29.71 168.04 29.4 168.34999 29.18 168.43 28.779999 168.25 28.46 167.99 28.089999 167.69 27.679999 167.78 27.199999 167.93 26.609999 167.62 26.089999 167.47 25.55 167.11 25.34 166.63 25.33 166.24 25.42 165.77 25.66 165.29001 25.88 164.81002 26.08 164.13002 26.38 163.57 27.07 162.78002 27.03 163.02002 27.29 163.09001 27.640002 162.98001 27.960001 162.98001 27.95 162.98001 27.94 162.98001 27.93 162.84001 28.41 163.09001 28.84 163.20001 29.300002 163.45001 30.000002 163.14002 30.79 163.53002 31.44 163.62 31.63 163.78 31.82 163.99 31.83ZM163.86 32.34C163.3 32.19 162.97 31.61 162.85 31.07 162.76001 30.59 162.96 30.11 162.88 29.63 162.81 29.13 162.54001 28.71 162.56 28.199999 162.55 27.949999 162.68 27.679999 162.59 27.429999 162.5 27.239998 162.19 26.899998 162.45 26.749999 162.51 26.619999 162.62999 26.659998 162.73999 26.669999 163.15999 26.649998 163.46999 26.329998 163.77999 26.079998 164.22998 25.689999 164.78998 25.369999 165.32999 25.159998 166.00998 24.679999 166.90999 24.599999 167.65999 24.929999 167.98999 25.069998 168.07999 25.429999 168.10999 25.749999 168.13999 26.069998 168.20999 26.399998 168.19998 26.719998 168.19998 26.989998 168.04999 27.259999 168.15999 27.519997 168.32999 27.929997 168.73999 28.169997 168.80998 28.629998 169.04999 29.569998 168.05998 29.989998 167.44998 30.449997 166.98998 30.799998 166.48998 31.189997 165.87998 31.009997 165.31 31.57 164.8 32.53 163.86 32.34Z"/>
<path transform="matrix(.8250824,0,0,.82062259,190.79494,183.95415)" d="M165.76 27.12C165.73999 27.060002 165.78 27.01 165.83 26.990002 166.49 26.810002 167.14 26.600003 167.79001 26.400002 167.79001 26.400002 167.78002 26.400002 167.78002 26.400002 167.84001 26.310002 167.98001 26.330002 168.00002 26.440003 168.01001 26.490002 168.00002 26.540003 167.97002 26.580002 167.74002 26.770003 167.42002 26.830002 167.14002 26.920002 166.74002 27.100003 166.28002 27.140002 165.86002 27.190003 165.82 27.19 165.77 27.16 165.76 27.12Z"/>
<path transform="matrix(.8250824,0,0,.82062259,190.79494,183.95415)" d="M168.05 29.85C167.72 29.800002 167.40001 29.67 167.09 29.56 167.01999 29.529999 166.98999 29.449999 167 29.38 167.02 29.3 167.11 29.25 167.19 29.279999 167.48 29.38 167.77 29.489998 168.07 29.56 168.34 29.5 168.31 29.94 168.05 29.85Z"/>
<path transform="matrix(.8250824,0,0,.82062259,190.79494,183.95415)" d="M175.96 29.42C175.45001 29.37 174.99 29.14 174.49 29.22 173.75 29.449999 172.99 29.289999 172.26001 29.13 171.40001 29.019999 170.66 28.38 169.78002 28.42 169.48001 28.44 169.19002 28.56 168.89002 28.49 168.76001 28.47 168.69002 28.449999 168.58002 28.43 168.51001 28.43 168.44002 28.43 168.37001 28.42 168.21 28.38 168.20001 28.14 168.35 28.08 168.56002 27.98 168.82 28.02 169.04001 28.01 169.42002 27.960001 169.81002 27.91 170.19 27.97 171.13 28.15 171.94 28.72 172.90001 28.849999 173.49 29.029999 174.03002 28.919999 174.6 28.749999 175.24 28.699999 175.85 28.929999 176.49 28.829998 178.58 28.439999 177.71 25.829998 178.53 24.439999 178.97 23.739998 178.9 23.009999 177.97 22.869999 177.55 22.859999 177.1 23.15 176.69 22.929999 175.53 22.069998 174.29001 23.279999 173.44 24.009999 172.95 24.349999 172.36 24.489998 171.83 24.749999 171.16 24.989998 170.51 25.319998 169.82 25.459998 169.22 25.489998 168.6 25.409998 168.02 25.559998 167.96 25.569998 167.90001 25.569998 167.85 25.539998 167.52 25.189997 168.45001 25.059998 168.67002 25.049998 169.34001 25.019997 169.95001 25.069998 170.54001 24.729998 171.44 24.419999 172.37001 24.129998 173.21 23.679999 173.72 23.269999 174.14 22.749999 174.75 22.479998 175.44 22.099999 176.29 22.059998 176.94 22.529997 177.32 22.549998 177.69 22.349997 178.08 22.389998 178.69 22.459998 179.22 22.899998 179.31 23.519997 179.37 24.119997 178.92 24.599997 178.73999 25.139998 178.52999 25.789998 178.54 26.459998 178.49999 27.119997 178.47 28.43 177.31 29.66 175.96 29.42Z"/>
<path transform="matrix(.8250824,0,0,.82062259,190.79494,183.95415)" d="M168.75 40.97C168.13 40.920003 167.8 40.43 167.44 40 166.91 40.34 166.31 40.69 165.66 40.63 164.13 40.43 163.02 39.280004 163.45 37.690004 163.65 37.100004 164.02 36.620004 164.22 36.04 164.4 35.5 164.43001 34.870004 164.37 34.31 164.29 33.890005 164.01 33.54 163.95 33.120004 163.92 32.890005 163.95 32.660005 163.94 32.440004 163.94 32.440004 163.94 32.45 163.95 32.45V32.440004C163.78 32.180006 164.18 31.940003 164.29 32.250005 164.29999 32.420003 164.34999 32.590005 164.39 32.760004 164.48 33.210004 164.75 33.600004 164.89 34.04 165.05 34.850004 164.96 35.73 164.66 36.5 164.45 37.14 163.87001 37.64 163.89 38.33 163.92 38.670003 163.96 39.06 164.15 39.350004 164.4 39.72 164.84 39.850004 165.23999 40.010004 165.98 40.350004 166.68 39.870004 167.24999 39.420003 167.77999 39.15 168.10999 39.800004 168.33998 40.160005 168.57999 40.440004 168.97998 40.480005 169.31998 40.430006 169.96997 40.230005 170.37998 39.610006 170.95998 39.300004 171.16999 39.190004 171.41999 39.22 171.64998 39.180006 172.08998 39.060007 172.44998 38.860006 172.80998 38.620004 173.98998 37.610006 175.24999 38.97 175.70998 37.180006 175.77999 36.500005 175.11998 36.010004 175.01998 35.360006 174.67998 33.850008 172.36998 33.960004 172.68997 32.810007 172.77997 32.620008 173.01998 32.610006 173.20998 32.610006 174.08998 32.580007 174.86998 33.030004 175.71997 33.200006 176.28998 33.450006 176.76998 33.900007 177.39997 33.970006 177.92996 34.050008 178.15996 33.650007 178.21997 33.180006 178.27997 32.400007 178.64997 31.770005 178.77997 31.040005 178.76998 30.520005 178.31996 30.140006 177.92996 29.860005 177.75997 29.750004 176.62996 29.070004 177.06996 28.880005H177.05997C177.24997 28.860005 177.38997 29.110005 177.54998 29.160006 178.38997 29.480006 179.39998 30.160006 179.27997 31.180006 179.22997 31.650006 179.02997 32.020006 178.92996 32.460008 178.78997 33.170007 178.82996 34.150007 178.01996 34.45001 177.14997 34.79001 176.33997 34.15001 175.62996 33.730009 174.78997 33.480009 173.96996 33.070009 173.07996 33.050008 173.10996 33.140008 173.20996 33.230009 173.26996 33.270009 173.83997 33.61001 174.54996 33.750009 175.01996 34.24001 175.32996 34.56001 175.51996 34.96001 175.62996 35.39001 175.75997 35.68001 175.95996 35.93001 176.10996 36.21001 176.71996 37.19001 175.98996 38.77001 174.78995 38.77001 174.34995 38.80001 173.88996 38.69001 173.47995 38.89001 172.78995 39.31001 172.04996 39.73001 171.20995 39.73001 170.41 40.22 169.8 41.24 168.75 40.97Z"/>
<path transform="matrix(.8250824,0,0,.82062259,190.79494,183.95415)" d="M173.55 41.58C173.26001 41.52 173.04001 41.300004 172.79001 41.160005 172.27 41.050004 171.71 41.290006 171.18001 41.090005 170.8 40.930006 170.55 40.640005 170.20001 40.440004 170.03002 40.31 170.24 40.050004 170.40001 40.180006 170.43001 40.200006 170.47002 40.240007 170.50002 40.250005 170.77002 40.340005 171.00002 40.560007 171.25002 40.660005 171.74002 40.820005 172.23001 40.630006 172.71002 40.620004 173.25002 40.660005 173.63002 41.230005 174.22002 41.08 175.32003 41 175.57003 39.670003 176.48001 39.280004 176.98001 39.140005 177.56002 39.190004 177.99 38.88 178.49 38.47 178.58 37.780004 178.5 37.190004 178.35 36.670003 178 36.170003 178.25 35.620004 178.36 35.04 178.89 34.81 179.29 34.47 179.51 34.22 179.57999 33.88 179.76999 33.620004 181.51999 32.180006 180.94998 31.510003 180.05998 29.780003 179.65999 29.010003 179.94998 28.010003 179.17998 27.440003 178.98998 27.280003 177.69998 26.450003 178.32997 26.320002 178.38997 26.330002 178.43997 26.37 178.45998 26.420002 178.62998 26.620003 178.84998 26.730002 179.05998 26.860003 180.12999 27.320002 180.22998 28.200003 180.43999 29.210003 180.68 29.880003 181.13999 30.440003 181.4 31.100003 181.78 32.120004 181.26999 33.260004 180.4 33.83 180.09999 34.070005 180.04999 34.49 179.79 34.780004 179.56999 35.06 179.26 35.190004 178.98999 35.410005 178.66999 35.760004 178.66999 36.250005 178.88999 36.650007 179.30998 37.700006 178.98999 39.230005 177.80998 39.610006 177.38999 39.790006 176.90999 39.730005 176.49999 39.900007 175.58 40.78 175.09 41.86 173.55 41.58Z"/>
<path transform="matrix(.8250824,0,0,.82062259,190.79494,183.95415)" d="M170.99 36.66C170.61 36.15 170.43001 35.55 170.17 34.97 169.79 34.33 169.14 33.98 168.68 33.420003 168.06999 32.56 167.87999 31.450003 167.10999 30.690003 166.96999 30.630003 167.02999 30.390004 167.18999 30.430003 167.24999 30.440003 167.30998 30.460003 167.36998 30.500002 168.36998 31.100003 168.37998 32.38 168.97998 33.260004 169.44998 33.81 170.06998 34.190004 170.39998 34.840005 170.66999 35.410005 170.77999 36.040006 171.15998 36.560007 171.22 36.66 171.06 36.76 170.99 36.66Z"/>
<path transform="matrix(.8250824,0,0,.82062259,190.79494,183.95415)" d="M166.12 35.51C166.04999 35.079999 166.20999 34.64 166.09 34.23 165.92 33.739999 165.53 33.38 165.29 32.93 165.12 32.59 165.09 32.2 165.07999 31.83 165.09999 31.63 165.09999 31.03 165.38999 31.1 165.52999 31.140002 165.51999 31.29 165.48999 31.4 165.35999 32.71 166.79 33.69 166.37 35.04 166.31 35.22 166.5 35.57 166.26999 35.63 166.2 35.64 166.13 35.58 166.12 35.51Z"/>
<path transform="matrix(.8250824,0,0,.82062259,190.79494,183.95415)" d="M168.06 27.19C167.95999 27.08 168.06999 26.91 168.20999 26.94 168.35999 26.95 168.51 26.94 168.62999 26.880002 169.15999 26.6 169.52999 26.02 170.16999 25.980002 170.23999 25.970002 170.29999 26.020003 170.31998 26.090003 170.33998 26.160002 170.28998 26.240002 170.21997 26.250002 170.05997 26.270003 169.89997 26.330002 169.75997 26.400002 169.26 26.75 168.74 27.45 168.06 27.19Z"/>
<path transform="matrix(.8250824,0,0,.82062259,190.79494,183.95415)" d="M177.21 38.41C176.93001 38.28 176.72 38.03 176.47 37.85 176.28 37.73 176.07 37.66 175.91 37.5 175.74 37.51 175.62001 37.3 175.72 37.16 175.82 36.98 176.12 37.05 176.13 37.26 176.21 37.34 176.3 37.39 176.40001 37.42 176.69 37.539999 176.88 37.82 177.09001 38.01 177.18001 38.14 177.42002 38.179998 177.38 38.35 177.34 38.41 177.27 38.43 177.21 38.41Z"/>
<path transform="matrix(.8250824,0,0,.82062259,190.79494,183.95415)" d="M136.13 12.56C136.52 12.440001 136.96 12.570001 137.35 12.46 137.8 12.31 138.22 12.08 138.53 11.71 138.87 11.36 139.34 11.12 139.78 10.95 141.77 10.07 140.22 9.849999 139.34 9.01 139.04 8.68 138.98999 8.22 138.83 7.82 138.66 7.4100005 138.55 6.9300005 138.59 6.4900004 138.59 6.19 138.48 5.9300005 138.41 5.65 138.02 6.09 137.51001 6.37 137.17 6.84 136.65 7.62 136.39 8.54 136.04 9.39 136.01 9.75 136.18 10.1 136.14 10.47 136.13 10.89 136.05 11.31 136.03 11.7300009 136.06 11.940001 136.19 12.13 136.17 12.35 136.14 12.42 136.13 12.48 136.13 12.56ZM135.85 12.89C135.81002 12.85 135.8 12.780001 135.83 12.7300009 135.83 12.72 135.84 12.71 135.85 12.71 135.84001 12.7 135.85 12.69 135.84001 12.68 135.84001 12.68 135.84001 12.690001 135.84001 12.690001 135.84001 12.690001 135.84001 12.700001 135.84001 12.700001 135.78002 12.590001 135.78002 12.470001 135.77 12.35 135.74 12.17 135.59001 12.05 135.53 11.88 135.4 11.08 135.59 10.29 135.42 9.46 135.68 8.52 136.09999 7.6 136.59999 6.76 137.06999 6.07 137.82999 5.6800005 138.37999 5.09 138.99999 4.83 139.15999 6.62 139.16999 7.01 139.32999 7.54 139.51999 8.07 139.72998 8.58 140.67998 9.79 142.12998 10.02 140.00998 11.23 139.06998 11.61 138.55998 12.599999 137.54998 12.849999 137.04998 12.99 136.51998 12.809999 136.01998 12.91 135.98 12.940001 135.9 12.940001 135.85 12.89Z"/>
<path transform="matrix(.8250824,0,0,.82062259,190.79494,183.95415)" d="M139.79 9.14C139.65999 9.030001 139.73999 8.88 139.84 8.79 139.91 8.71 139.95 8.59 140.01 8.51 140.31 7.6200006 140.93999 6.96 141.31 6.11 141.58 5.4100005 141.52 4.65 141.69 3.93 141.77 3.5900002 141.95 3.26 142.04001 2.93 142.08 2.79 142.08 2.68 141.98001 2.5700002 141.62001 2.7900003 141.34001 3.1200002 140.99 3.3500002 140.53 3.5900002 140.24 4 139.96 4.41 139.75 4.6299998 138.85 6 138.57 5.54 138.51001 5.42 138.59001 5.27 138.73001 5.25 139.41 4.66 139.78002 3.79 140.49 3.23 140.89 2.99 141.22 2.73 141.56002 2.43 141.70001 2.3200002 141.91002 2.14 142.1 2.22 142.68001 2.55 142.27 3.26 142.16 3.74 141.98001 4.5299999 142.08 5.31 141.85 6.0699999 141.64 6.83 141.15001 7.47 140.75 8.129999 140.61 8.429999 140.46 8.749999 140.19 8.959999 140.09 9.07 139.96 9.28 139.79 9.14Z"/>
<path transform="matrix(.8250824,0,0,.82062259,190.79494,183.95415)" d="M140.55 9.82C140.49 9.71 140.6 9.63 140.69 9.599999 141.36 9.099999 141.65001 8.28 142.27 7.7399995 143.01001 6.9699995 143.47 5.959999 143.84001 4.959999 144.1 4.1799995 144.55002 3.469999 144.97002 2.769999 145.34001 2.009999 145.43003 1.1999991 145.65001 .39999915 145.03002 .5999991 144.66 1.1199992 144.17002 1.4999992 143.58002 1.8899992 142.90001 2.1399992 142.37001 2.6099992 142.35 2.7999993 142.05 2.7599993 142.07 2.5799993 142.18001 2.2699993 142.54001 2.0899993 142.8 1.9099991 143.25 1.6199992 143.76001 1.4399991 144.12001 1.0499991 144.40001 .7399991 144.66 .3899991 145.05 .1999991 145.42-.03000091 146.13-.16000092 146 .4999991 145.89 1.0399991 145.74 1.5699992 145.65 2.1199992 145.47 3.0199993 144.97 3.7999993 144.59 4.609999 144.23 5.439999 143.92 6.2799994 143.47 7.0599997 143 7.8499996 142.31 8.459999 141.7 9.139999 141.53 9.3 140.69 10.11 140.55 9.82Z"/>
</g>
<g clip-path="url(#clip_4)">
<text fill="#292929" xml:space="preserve" transform="matrix(.75 0 0 .75 42.62055 193.99187)" font-size="14.01" font-family="Bellefair"><tspan y="13" x="47.8125 58.76573 69.85896 85.320178 102.76938 114.17061 126.85983 134.45308 145.85431 160.50353 175.96474">FLOWER SHOP</tspan></text>
</g>
<path transform="matrix(1,0,0,-1,0,383.03999)" d="M190.79496 164.57939H340.79496V199.26689H190.79496Z" fill-opacity="0"/>
</svg>
